<?xml version="1.0" encoding="UTF-8"?>
<svg xmlns="http://www.w3.org/2000/svg" width="375" height="428" viewBox="0 0 375 428" fill="none">
  <path d="M96.5936 298.921C96.5936 299.917 95.8748 301.023 94.382 301.852L87.6918 305.999C85.0378 307.547 81.0568 307.713 78.7346 306.386L7.07727 265.249L1.54815 262.042C0.49762 261.489 0 260.66 0 259.831C0 258.835 0.718785 257.73 2.21165 256.9L8.90187 252.753C11.5558 251.205 15.5368 251.039 17.859 252.366L95.0455 296.71C96.096 297.318 96.5936 298.092 96.5936 298.921Z" fill="#E0E8F7"></path>
  <path d="M85.6465 229.365V286.315C85.6465 288.693 84.8724 290.407 83.656 291.291L83.2137 291.568C81.9972 292.176 80.4491 292.01 78.7351 291.07L8.84706 250.708C5.03197 248.496 1.88037 242.801 1.88037 237.935V180.985C1.88037 178.497 2.70974 176.728 4.03673 175.899L4.31318 175.733C5.36371 175.18 6.63541 175.235 8.07298 175.843C8.29414 175.954 8.5706 176.065 8.84706 176.23L12.8833 178.553L78.7904 216.593C79.0115 216.759 79.288 216.869 79.5091 217.035C82.8819 219.523 85.6465 224.831 85.6465 229.365Z" fill="white" stroke="#223893" stroke-width="0.86" stroke-miterlimit="10" stroke-linecap="round" stroke-linejoin="round"></path>
  <path d="M85.6461 229.365V237.161L12.7724 195.14L1.82471 188.782V180.93C1.82471 178.442 2.65407 176.673 3.98106 175.843L4.25752 175.678C5.30805 175.125 6.57975 175.18 8.01732 175.788C8.23848 175.899 8.51494 176.009 8.79139 176.175L12.8276 178.497L78.7347 216.538C78.9559 216.704 79.2323 216.814 79.4535 216.98C82.8815 219.523 85.6461 224.831 85.6461 229.365Z" fill="#4CD9ED" stroke="#223893" stroke-width="0.86" stroke-miterlimit="10" stroke-linecap="round" stroke-linejoin="round"></path>
  <path d="M12.4956 188.192C13.2096 187.78 13.1943 186.416 12.4614 185.147C11.7286 183.878 10.5556 183.183 9.84165 183.595C9.12764 184.007 9.14294 185.371 9.87581 186.64C10.6087 187.909 11.7816 188.604 12.4956 188.192Z" fill="#223893"></path>
  <path d="M19.9468 192.343C20.6608 191.931 20.6455 190.568 19.9126 189.298C19.1797 188.029 18.0068 187.334 17.2928 187.746C16.5788 188.159 16.5941 189.522 17.327 190.791C18.0599 192.061 19.2328 192.755 19.9468 192.343Z" fill="#223893"></path>
  <path d="M26.8237 196.499C27.5377 196.087 27.5224 194.723 26.7896 193.454C26.0567 192.185 24.8838 191.49 24.1698 191.902C23.4558 192.314 23.4711 193.678 24.2039 194.947C24.9368 196.216 26.1097 196.911 26.8237 196.499Z" fill="#223893"></path>
  <path d="M52.25 227.209L73.6477 239.539" stroke="#223893" stroke-width="0.86" stroke-miterlimit="10" stroke-linecap="round" stroke-linejoin="round"></path>
  <path d="M27.3689 212.833L43.2927 222.011" stroke="#223893" stroke-width="0.86" stroke-miterlimit="10" stroke-linecap="round" stroke-linejoin="round"></path>
  <path d="M9.28833 202.438L17.6373 207.249" stroke="#223893" stroke-width="0.86" stroke-miterlimit="10" stroke-linecap="round" stroke-linejoin="round"></path>
  <path d="M58.8301 241.032L65.465 244.847" stroke="#223893" stroke-width="0.86" stroke-miterlimit="10" stroke-linecap="round" stroke-linejoin="round"></path>
  <path d="M30.1892 224.444L53.1903 237.77" stroke="#223893" stroke-width="0.86" stroke-miterlimit="10" stroke-linecap="round" stroke-linejoin="round"></path>
  <path d="M9.28833 212.391L23.664 220.685" stroke="#223893" stroke-width="0.86" stroke-miterlimit="10" stroke-linecap="round" stroke-linejoin="round"></path>
  <path d="M58.8301 261.545L65.465 265.36" stroke="#223893" stroke-width="0.86" stroke-miterlimit="10" stroke-linecap="round" stroke-linejoin="round"></path>
  <path d="M30.1892 245.013L53.1903 258.283" stroke="#223893" stroke-width="0.86" stroke-miterlimit="10" stroke-linecap="round" stroke-linejoin="round"></path>
  <path d="M9.28833 232.959L23.664 241.253" stroke="#223893" stroke-width="0.86" stroke-miterlimit="10" stroke-linecap="round" stroke-linejoin="round"></path>
  <path d="M41.6897 241.087L45.6154 243.354" stroke="#223893" stroke-width="0.86" stroke-miterlimit="10" stroke-linecap="round" stroke-linejoin="round"></path>
  <path d="M20.6228 228.923L35.3302 237.383" stroke="#223893" stroke-width="0.86" stroke-miterlimit="10" stroke-linecap="round" stroke-linejoin="round"></path>
  <path d="M9.28833 222.399L14.3751 225.329" stroke="#223893" stroke-width="0.86" stroke-miterlimit="10" stroke-linecap="round" stroke-linejoin="round"></path>
  <path d="M20.6228 248.772L35.3302 257.232" stroke="#223893" stroke-width="0.86" stroke-miterlimit="10" stroke-linecap="round" stroke-linejoin="round"></path>
  <path d="M9.28833 242.193L14.3751 245.123" stroke="#223893" stroke-width="0.86" stroke-miterlimit="10" stroke-linecap="round" stroke-linejoin="round"></path>
  <path d="M96.5934 223.007V230.858L85.6458 237.161V229.31C85.6458 224.776 82.8812 219.468 79.3979 217.035C79.1767 216.869 78.9555 216.704 78.6791 216.593L12.772 178.553L8.73578 176.23C8.45932 176.065 8.23816 175.954 7.9617 175.843C6.52413 175.235 5.19714 175.235 4.2019 175.733L14.8178 169.596L15.2048 169.374C16.4212 168.766 18.0247 168.877 19.7387 169.872L89.6267 210.235C93.4418 212.501 96.5934 218.196 96.5934 223.007Z" fill="#3D93FA" stroke="#223893" stroke-width="0.86" stroke-miterlimit="10" stroke-linecap="round" stroke-linejoin="round"></path>
  <path d="M96.5939 230.858V279.957C96.5939 282.334 95.8198 284.104 94.6034 284.933L94.1611 285.209L83.6558 291.291C84.8722 290.462 85.6462 288.693 85.6462 286.315V237.161L96.5939 230.858Z" fill="#E0E8F7" stroke="#223893" stroke-width="0.86" stroke-miterlimit="10" stroke-linecap="round"></path>
  <path d="M267 389.544C267 390.904 266.017 392.415 263.977 393.548L254.835 399.215C251.208 401.331 245.768 401.557 242.594 399.744L144.671 343.529L137.116 339.146C135.68 338.391 135 337.257 135 336.124C135 334.764 135.982 333.253 138.022 332.12L147.165 326.453C150.792 324.337 156.232 324.11 159.405 325.924L264.884 386.521C266.32 387.352 267 388.41 267 389.544Z" fill="#E0E8F7"></path>
  <path d="M252.039 294.492V372.316C252.039 375.565 250.981 377.908 249.319 379.117L248.715 379.494C247.052 380.326 244.937 380.099 242.594 378.814L147.089 323.657C141.876 320.635 137.569 312.852 137.569 306.203V228.379C137.569 224.978 138.702 222.561 140.516 221.427L140.893 221.201C142.329 220.445 144.067 220.521 146.031 221.352C146.334 221.503 146.711 221.654 147.089 221.881L152.605 225.054L242.67 277.038C242.972 277.265 243.35 277.416 243.652 277.642C248.261 281.042 252.039 288.296 252.039 294.492Z" fill="white" stroke="#223893" stroke-width="0.86" stroke-miterlimit="10" stroke-linecap="round" stroke-linejoin="round"></path>
  <path d="M252.039 294.492V305.145L152.453 247.721L137.493 239.032V228.303C137.493 224.903 138.626 222.485 140.44 221.352L140.817 221.125C142.253 220.369 143.991 220.445 145.955 221.276C146.258 221.427 146.635 221.578 147.013 221.805L152.529 224.978L242.594 276.962C242.896 277.189 243.274 277.34 243.576 277.567C248.261 281.042 252.039 288.296 252.039 294.492Z" fill="#4CD9ED" stroke="#223893" stroke-width="0.86" stroke-miterlimit="10" stroke-linecap="round" stroke-linejoin="round"></path>
  <path d="M152.076 238.227C153.052 237.663 153.031 235.8 152.029 234.066C151.028 232.331 149.425 231.382 148.449 231.945C147.473 232.508 147.494 234.371 148.496 236.106C149.497 237.84 151.1 238.79 152.076 238.227Z" fill="#223893"></path>
  <path d="M161.832 243.921C162.808 243.358 162.787 241.495 161.786 239.761C160.784 238.026 159.181 237.076 158.206 237.64C157.23 238.203 157.251 240.066 158.252 241.801C159.254 243.535 160.857 244.485 161.832 243.921Z" fill="#223893"></path>
  <path d="M171.656 249.578C172.632 249.015 172.611 247.152 171.609 245.418C170.608 243.683 169.005 242.733 168.029 243.297C167.053 243.86 167.074 245.723 168.076 247.458C169.077 249.192 170.68 250.142 171.656 249.578Z" fill="#223893"></path>
  <path d="M206.402 291.545L235.643 308.394" stroke="#223893" stroke-width="0.86" stroke-miterlimit="10" stroke-linecap="round" stroke-linejoin="round"></path>
  <path d="M172.401 271.9L194.162 284.442" stroke="#223893" stroke-width="0.86" stroke-miterlimit="10" stroke-linecap="round" stroke-linejoin="round"></path>
  <path d="M147.693 257.695L159.102 264.269" stroke="#223893" stroke-width="0.86" stroke-miterlimit="10" stroke-linecap="round" stroke-linejoin="round"></path>
  <path d="M215.394 310.434L224.461 315.648" stroke="#223893" stroke-width="0.86" stroke-miterlimit="10" stroke-linecap="round" stroke-linejoin="round"></path>
  <path d="M176.255 287.767L207.687 305.977" stroke="#223893" stroke-width="0.86" stroke-miterlimit="10" stroke-linecap="round" stroke-linejoin="round"></path>
  <path d="M147.693 271.295L167.338 282.629" stroke="#223893" stroke-width="0.86" stroke-miterlimit="10" stroke-linecap="round" stroke-linejoin="round"></path>
  <path d="M215.394 338.467L224.461 343.68" stroke="#223893" stroke-width="0.86" stroke-miterlimit="10" stroke-linecap="round" stroke-linejoin="round"></path>
  <path d="M176.255 315.875L207.687 334.009" stroke="#223893" stroke-width="0.86" stroke-miterlimit="10" stroke-linecap="round" stroke-linejoin="round"></path>
  <path d="M147.693 299.403L167.338 310.737" stroke="#223893" stroke-width="0.86" stroke-miterlimit="10" stroke-linecap="round" stroke-linejoin="round"></path>
  <path d="M191.97 310.51L197.335 313.608" stroke="#223893" stroke-width="0.86" stroke-miterlimit="10" stroke-linecap="round" stroke-linejoin="round"></path>
  <path d="M163.182 293.887L183.281 305.448" stroke="#223893" stroke-width="0.86" stroke-miterlimit="10" stroke-linecap="round" stroke-linejoin="round"></path>
  <path d="M147.693 284.971L154.644 288.976" stroke="#223893" stroke-width="0.86" stroke-miterlimit="10" stroke-linecap="round" stroke-linejoin="round"></path>
  <path d="M163.182 321.013L183.281 332.573" stroke="#223893" stroke-width="0.86" stroke-miterlimit="10" stroke-linecap="round" stroke-linejoin="round"></path>
  <path d="M147.693 312.021L154.644 316.026" stroke="#223893" stroke-width="0.86" stroke-miterlimit="10" stroke-linecap="round" stroke-linejoin="round"></path>
  <path d="M267 285.803V296.532L252.039 305.145V294.416C252.039 288.22 248.261 280.967 243.501 277.642C243.199 277.416 242.897 277.189 242.519 277.038L152.454 225.054L146.938 221.881C146.56 221.654 146.258 221.503 145.88 221.352C143.916 220.521 142.102 220.521 140.742 221.201L155.25 212.814L155.778 212.511C157.441 211.68 159.632 211.831 161.974 213.191L257.479 268.349C262.693 271.447 267 279.229 267 285.803Z" fill="#3D93FA" stroke="#223893" stroke-width="0.86" stroke-miterlimit="10" stroke-linecap="round" stroke-linejoin="round"></path>
  <path d="M266.999 296.532V363.627C266.999 366.876 265.942 369.294 264.279 370.428L263.675 370.805L249.319 379.117C250.981 377.983 252.039 375.565 252.039 372.316V305.145L266.999 296.532Z" fill="#E0E8F7" stroke="#223893" stroke-width="0.86" stroke-miterlimit="10" stroke-linecap="round"></path>
  <path d="M143.181 421.774C143.181 422.518 142.609 423.319 141.579 423.948L136.658 427.038C134.712 428.182 131.737 428.297 130.078 427.324L77.207 396.998L73.1444 394.652C72.4005 394.194 72 393.622 72 392.992C72 392.249 72.5722 391.448 73.6021 390.818L78.523 387.728C80.4685 386.584 83.4439 386.47 85.1032 387.442L142.037 420.115C142.838 420.572 143.181 421.144 143.181 421.774Z" fill="#E0E8F7"></path>
  <path d="M135.114 370.448V412.447C135.114 414.221 134.541 415.48 133.626 416.109L133.283 416.338C132.367 416.796 131.223 416.681 129.964 415.937L78.4092 386.183C75.6054 384.524 73.3167 380.347 73.3167 376.799V334.8C73.3167 332.969 73.9461 331.653 74.8616 331.081L75.0905 330.967C75.8343 330.566 76.807 330.566 77.8942 331.024C78.0659 331.081 78.2375 331.195 78.4664 331.31L81.4418 333.026L130.021 361.064C130.193 361.178 130.364 361.293 130.536 361.407C133.111 363.181 135.114 367.129 135.114 370.448Z" fill="white" stroke="#223893" stroke-width="0.6" stroke-miterlimit="10" stroke-linecap="round" stroke-linejoin="round"></path>
  <path d="M135.114 370.448V376.227L81.3846 345.214L73.3167 340.522V334.743C73.3167 332.912 73.9461 331.596 74.8616 331.024L75.0905 330.909C75.8343 330.509 76.807 330.509 77.8942 330.967C78.0659 331.024 78.2375 331.138 78.4664 331.253L81.4418 332.969L130.021 361.007C130.193 361.121 130.364 361.236 130.536 361.35C133.111 363.181 135.114 367.129 135.114 370.448Z" fill="#4CD9ED" stroke="#223893" stroke-width="0.6" stroke-miterlimit="10" stroke-linecap="round" stroke-linejoin="round"></path>
  <path d="M81.1545 340.092C81.7019 339.776 81.7101 338.765 81.1728 337.835C80.6356 336.904 79.7564 336.406 79.2091 336.722C78.6617 337.038 78.6535 338.049 79.1908 338.979C79.728 339.91 80.6072 340.408 81.1545 340.092Z" fill="#223893"></path>
  <path d="M86.4604 343.112C87.0078 342.796 87.016 341.786 86.4787 340.855C85.9415 339.925 85.0623 339.427 84.515 339.743C83.9676 340.059 83.9594 341.069 84.4967 342C85.0339 342.93 85.9131 343.428 86.4604 343.112Z" fill="#223893"></path>
  <path d="M91.7461 346.211C92.2934 345.895 92.3016 344.884 91.7644 343.954C91.2272 343.023 90.3479 342.525 89.8006 342.841C89.2533 343.157 89.2451 344.168 89.7823 345.098C90.3195 346.029 91.1987 346.527 91.7461 346.211Z" fill="#223893"></path>
  <path d="M110.508 368.846L126.301 378.001" stroke="#223893" stroke-width="0.6" stroke-miterlimit="10" stroke-linecap="round" stroke-linejoin="round"></path>
  <path d="M92.1411 358.26L103.871 365.069" stroke="#223893" stroke-width="0.6" stroke-miterlimit="10" stroke-linecap="round" stroke-linejoin="round"></path>
  <path d="M78.8098 350.593L84.9895 354.141" stroke="#223893" stroke-width="0.6" stroke-miterlimit="10" stroke-linecap="round" stroke-linejoin="round"></path>
  <path d="M115.371 379.031L120.235 381.835" stroke="#223893" stroke-width="0.6" stroke-miterlimit="10" stroke-linecap="round" stroke-linejoin="round"></path>
  <path d="M94.2007 366.843L111.195 376.628" stroke="#223893" stroke-width="0.6" stroke-miterlimit="10" stroke-linecap="round" stroke-linejoin="round"></path>
  <path d="M78.8098 357.974L89.3954 364.039" stroke="#223893" stroke-width="0.6" stroke-miterlimit="10" stroke-linecap="round" stroke-linejoin="round"></path>
  <path d="M115.371 394.194L120.235 396.998" stroke="#223893" stroke-width="0.6" stroke-miterlimit="10" stroke-linecap="round" stroke-linejoin="round"></path>
  <path d="M94.2007 382.006L111.195 391.791" stroke="#223893" stroke-width="0.6" stroke-miterlimit="10" stroke-linecap="round" stroke-linejoin="round"></path>
  <path d="M78.8098 373.08L89.3954 379.203" stroke="#223893" stroke-width="0.6" stroke-miterlimit="10" stroke-linecap="round" stroke-linejoin="round"></path>
  <path d="M102.728 379.088L105.646 380.748" stroke="#223893" stroke-width="0.6" stroke-miterlimit="10" stroke-linecap="round" stroke-linejoin="round"></path>
  <path d="M87.2205 370.162L98.0349 376.399" stroke="#223893" stroke-width="0.6" stroke-miterlimit="10" stroke-linecap="round" stroke-linejoin="round"></path>
  <path d="M78.8098 365.298L82.5863 367.473" stroke="#223893" stroke-width="0.6" stroke-miterlimit="10" stroke-linecap="round" stroke-linejoin="round"></path>
  <path d="M87.2205 384.753L98.0349 391.047" stroke="#223893" stroke-width="0.6" stroke-miterlimit="10" stroke-linecap="round" stroke-linejoin="round"></path>
  <path d="M78.8098 379.947L82.5863 382.121" stroke="#223893" stroke-width="0.6" stroke-miterlimit="10" stroke-linecap="round" stroke-linejoin="round"></path>
  <path d="M143.181 365.756V371.535L135.114 376.227V370.448C135.114 367.129 133.111 363.181 130.536 361.407C130.364 361.293 130.193 361.178 130.021 361.064L81.4417 333.027L78.4663 331.31C78.2946 331.196 78.0657 331.081 77.8941 331.024C76.8069 330.566 75.8914 330.566 75.0903 330.967L82.9294 326.446L83.2155 326.275C84.131 325.817 85.2754 325.931 86.5342 326.618L138.089 356.372C140.893 358.031 143.181 362.208 143.181 365.756Z" fill="#3D93FA" stroke="#223893" stroke-width="0.6" stroke-miterlimit="10" stroke-linecap="round" stroke-linejoin="round"></path>
  <path d="M143.182 371.535V407.755C143.182 409.529 142.609 410.788 141.694 411.417L141.351 411.589L133.626 416.052C134.541 415.422 135.114 414.164 135.114 412.39V376.17L143.182 371.535Z" fill="#E0E8F7" stroke="#223893" stroke-width="0.6" stroke-miterlimit="10" stroke-linecap="round"></path>
  <path d="M124.033 207.899C124.033 208.504 123.567 209.156 122.729 209.668L118.725 212.182C117.142 213.114 114.721 213.207 113.371 212.415L70.3502 187.739L67.0445 185.83C66.4392 185.458 66.1133 184.992 66.1133 184.48C66.1133 183.875 66.5789 183.223 67.4169 182.711L71.421 180.196C73.004 179.265 75.4251 179.172 76.7753 179.964L123.102 206.549C123.753 206.921 124.033 207.387 124.033 207.899Z" fill="#E0E8F7"></path>
  <path d="M117.468 166.136V200.31C117.468 201.753 117.002 202.778 116.257 203.29L115.978 203.476C115.233 203.848 114.302 203.755 113.278 203.15L71.3278 178.939C69.0464 177.589 67.1841 174.19 67.1841 171.304V137.129C67.1841 135.639 67.6962 134.569 68.4412 134.103L68.6274 134.01C69.2327 133.684 70.0242 133.684 70.9088 134.056C71.0485 134.103 71.1882 134.196 71.3744 134.289L73.7955 135.686L113.324 158.5C113.464 158.593 113.603 158.686 113.743 158.779C115.838 160.223 117.468 163.435 117.468 166.136Z" fill="white" stroke="#223893" stroke-width="0.86" stroke-miterlimit="10" stroke-linecap="round" stroke-linejoin="round"></path>
  <path d="M117.468 166.136V170.838L73.7489 145.603L67.1841 141.785V137.083C67.1841 135.593 67.6962 134.522 68.4412 134.056L68.6274 133.963C69.2327 133.637 70.0242 133.637 70.9088 134.01C71.0485 134.056 71.1882 134.15 71.3744 134.243L73.7955 135.639L113.324 158.453C113.464 158.546 113.603 158.64 113.743 158.733C115.838 160.223 117.468 163.435 117.468 166.136Z" fill="#80C0FF" stroke="#223893" stroke-width="0.86" stroke-miterlimit="10" stroke-linecap="round" stroke-linejoin="round"></path>
  <path d="M73.5623 141.435C74.0076 141.178 74.0143 140.355 73.5772 139.598C73.14 138.841 72.4246 138.436 71.9793 138.693C71.5339 138.95 71.5272 139.772 71.9644 140.529C72.4015 141.287 73.1169 141.692 73.5623 141.435Z" fill="#223893"></path>
  <path d="M77.8799 143.893C78.3253 143.635 78.3319 142.813 77.8948 142.056C77.4577 141.299 76.7422 140.894 76.2969 141.151C75.8515 141.408 75.8449 142.23 76.282 142.987C76.7191 143.744 77.4345 144.15 77.8799 143.893Z" fill="#223893"></path>
  <path d="M82.1802 146.414C82.6255 146.157 82.6322 145.335 82.1951 144.577C81.758 143.82 81.0425 143.415 80.5972 143.672C80.1518 143.929 80.1451 144.751 80.5823 145.509C81.0194 146.266 81.7348 146.671 82.1802 146.414Z" fill="#223893"></path>
  <path d="M97.4475 164.832L110.298 172.281" stroke="#223893" stroke-width="0.86" stroke-miterlimit="10" stroke-linecap="round" stroke-linejoin="round"></path>
  <path d="M82.5017 156.219L92.0463 161.759" stroke="#223893" stroke-width="0.86" stroke-miterlimit="10" stroke-linecap="round" stroke-linejoin="round"></path>
  <path d="M71.6541 149.98L76.6824 152.866" stroke="#223893" stroke-width="0.86" stroke-miterlimit="10" stroke-linecap="round" stroke-linejoin="round"></path>
  <path d="M101.405 173.119L105.362 175.401" stroke="#223893" stroke-width="0.86" stroke-miterlimit="10" stroke-linecap="round" stroke-linejoin="round"></path>
  <path d="M84.178 163.202L98.006 171.164" stroke="#223893" stroke-width="0.86" stroke-miterlimit="10" stroke-linecap="round" stroke-linejoin="round"></path>
  <path d="M71.6541 155.986L80.2675 160.921" stroke="#223893" stroke-width="0.86" stroke-miterlimit="10" stroke-linecap="round" stroke-linejoin="round"></path>
  <path d="M101.405 185.458L105.362 187.739" stroke="#223893" stroke-width="0.86" stroke-miterlimit="10" stroke-linecap="round" stroke-linejoin="round"></path>
  <path d="M84.178 175.541L98.006 183.502" stroke="#223893" stroke-width="0.86" stroke-miterlimit="10" stroke-linecap="round" stroke-linejoin="round"></path>
  <path d="M71.6541 168.277L80.2675 173.259" stroke="#223893" stroke-width="0.86" stroke-miterlimit="10" stroke-linecap="round" stroke-linejoin="round"></path>
  <path d="M91.116 173.166L93.4905 174.516" stroke="#223893" stroke-width="0.86" stroke-miterlimit="10" stroke-linecap="round" stroke-linejoin="round"></path>
  <path d="M78.4983 165.903L87.2979 170.978" stroke="#223893" stroke-width="0.86" stroke-miterlimit="10" stroke-linecap="round" stroke-linejoin="round"></path>
  <path d="M71.6541 161.945L74.7269 163.714" stroke="#223893" stroke-width="0.86" stroke-miterlimit="10" stroke-linecap="round" stroke-linejoin="round"></path>
  <path d="M78.4983 177.775L87.2979 182.897" stroke="#223893" stroke-width="0.86" stroke-miterlimit="10" stroke-linecap="round" stroke-linejoin="round"></path>
  <path d="M71.6541 173.864L74.7269 175.634" stroke="#223893" stroke-width="0.86" stroke-miterlimit="10" stroke-linecap="round" stroke-linejoin="round"></path>
  <path d="M124.033 162.318V167.02L117.468 170.838V166.136C117.468 163.435 115.839 160.223 113.743 158.779C113.604 158.686 113.464 158.593 113.324 158.5L73.7957 135.686L71.3747 134.289C71.235 134.196 71.0488 134.103 70.9091 134.056C70.0245 133.684 69.2795 133.684 68.6277 134.01L75.0063 130.332L75.2391 130.192C75.984 129.82 76.9152 129.913 77.9395 130.471L119.889 154.682C122.171 156.032 124.033 159.431 124.033 162.318Z" fill="#3D93FA" stroke="#223893" stroke-width="0.86" stroke-miterlimit="10" stroke-linecap="round" stroke-linejoin="round"></path>
  <path d="M124.033 167.02V196.492C124.033 197.935 123.568 198.96 122.823 199.472L122.543 199.611L116.258 203.243C117.003 202.731 117.468 201.707 117.468 200.263V170.791L124.033 167.02Z" fill="#E0E8F7" stroke="#223893" stroke-width="0.86" stroke-miterlimit="10" stroke-linecap="round"></path>
  <path d="M100.659 134.555C100.659 135.439 100.38 136.231 99.8674 136.65L99.4949 136.883L91.4402 141.538C92.092 141.166 92.4179 140.374 92.4179 139.35C92.4179 138.372 92.092 137.162 91.4402 135.998L85.4341 125.569L88.926 123.567L91.4402 122.123C91.9058 121.844 92.2317 121.332 92.3714 120.68C92.5111 119.935 92.4179 118.957 92.092 117.98L95.3977 123.753L99.6811 131.202C100.333 132.366 100.659 133.577 100.659 134.555Z" fill="#E0E8F7" stroke="#223893" stroke-width="0.86" stroke-miterlimit="10" stroke-linecap="round" stroke-linejoin="round"></path>
  <path d="M124.403 138.559C124.403 139.583 124.078 140.421 123.426 140.84L115.092 145.682C115.045 145.682 114.999 145.729 114.952 145.729L115.138 145.636C115.79 145.263 116.116 144.425 116.116 143.447V143.308C116.116 142.33 115.79 141.119 115.138 139.955L112.81 135.905L106.758 125.476C106.106 124.358 105.268 123.474 104.383 122.961C104.709 122.123 104.895 121.099 104.895 119.889C106.525 120.82 108.015 121.146 109.272 120.959C109.039 119.563 109.365 118.399 110.203 117.933C110.482 117.793 110.762 117.7 111.088 117.7C111.553 117.7 112.112 117.886 112.624 118.166C113.462 118.678 114.347 119.563 114.999 120.68L123.333 135.113C124.078 136.324 124.403 137.581 124.403 138.559Z" fill="#E0E8F7" stroke="#223893" stroke-width="0.86" stroke-miterlimit="10" stroke-linecap="round" stroke-linejoin="round"></path>
  <path d="M116.116 143.261C116.069 142.283 115.743 141.166 115.138 140.049L112.764 135.905L112.81 135.858L115.138 139.909C115.79 141.073 116.116 142.283 116.116 143.261Z" fill="white" stroke="#223893" stroke-width="0.86" stroke-miterlimit="10" stroke-linecap="round" stroke-linejoin="round"></path>
  <path d="M99.8202 136.65C99.7737 136.696 99.7271 136.743 99.634 136.789C99.5874 136.836 99.4943 136.883 99.4478 136.883L99.8202 136.65Z" fill="white" stroke="#223893" stroke-width="0.86" stroke-miterlimit="10" stroke-linecap="round" stroke-linejoin="round"></path>
  <path d="M116.115 143.261C116.069 142.283 115.743 141.166 115.137 140.049L112.763 135.905L112.81 135.858L115.137 139.909C115.789 141.073 116.115 142.283 116.115 143.261Z" fill="#E0E8F7" stroke="#223893" stroke-width="0.86" stroke-miterlimit="10" stroke-linecap="round" stroke-linejoin="round"></path>
  <path d="M116.115 143.261V143.401C116.115 144.425 115.789 145.217 115.137 145.589L114.951 145.682L106.803 150.385C105.499 151.13 103.357 149.919 102.007 147.638C101.355 146.474 101.03 145.31 101.03 144.285C101.03 143.261 101.355 142.47 102.007 142.097L108.013 138.605L102.007 128.176C101.542 127.338 101.216 126.5 101.076 125.708C100.843 124.312 101.169 123.148 102.007 122.682C102.287 122.542 102.566 122.449 102.892 122.449C103.357 122.449 103.916 122.636 104.428 122.915C105.266 123.427 106.151 124.265 106.803 125.429L112.809 135.858L112.762 135.905L115.137 140.049C115.789 141.166 116.115 142.33 116.115 143.261Z" fill="white" stroke="#223893" stroke-width="0.86" stroke-miterlimit="10" stroke-linecap="round" stroke-linejoin="round"></path>
  <path d="M92.3703 139.35C92.3703 140.328 92.0444 141.119 91.3925 141.538L91.346 141.585C90.0423 142.33 87.9006 141.073 86.597 138.791L78.2629 124.312C77.6111 123.148 77.2852 121.984 77.2852 120.959V120.82C77.2852 119.795 77.6111 119.004 78.2629 118.631L86.597 113.836C86.597 113.836 86.6435 113.836 86.6435 113.789L88.599 112.625C88.599 112.672 88.599 112.718 88.6456 112.765C88.7387 113.184 88.8318 113.603 88.9249 114.022C88.9715 114.255 89.0646 114.441 89.1112 114.674C89.763 116.816 90.8804 118.911 92.2772 120.68C92.1375 121.332 91.8581 121.844 91.346 122.123L88.8318 123.567L85.3399 125.569L91.346 135.998C92.0444 137.162 92.3703 138.326 92.3703 139.35Z" fill="white" stroke="#223893" stroke-width="0.86" stroke-miterlimit="10" stroke-linecap="round" stroke-linejoin="round"></path>
  <path d="M116.256 114.627V114.674C116.256 115.512 116.163 116.303 115.977 117.002C115.791 117.747 115.325 118.445 114.627 118.818L113.975 119.19L105.687 123.986L101.916 126.174C102.94 125.522 103.685 124.358 104.058 122.775C104.197 122.17 104.244 121.471 104.291 120.773V120.727C104.291 115.233 100.473 108.621 95.7237 105.874C95.7237 105.874 95.6771 105.874 95.6771 105.828C93.4423 104.571 91.4403 104.384 89.9038 105.129L102.056 98.1454L102.568 97.8661C103.22 97.4936 103.965 97.3539 104.71 97.5401C105.455 97.7264 106.199 98.0523 106.991 98.5179C107.038 98.5179 107.038 98.5179 107.038 98.5644C108.574 99.4491 110.064 100.753 111.321 102.243C114.208 105.735 116.256 110.484 116.256 114.627Z" fill="#3D93FA" stroke="#223893" stroke-width="0.86" stroke-miterlimit="10" stroke-linecap="round" stroke-linejoin="round"></path>
  <path d="M87.1104 110.809C87.1104 116.303 90.9748 122.915 95.6772 125.662C98.0052 127.012 100.1 127.152 101.637 126.314L101.916 126.174C103.359 125.243 104.244 123.38 104.244 120.773V120.727C104.244 115.233 100.426 108.621 95.6772 105.874C95.6772 105.874 95.6307 105.874 95.6307 105.828C93.3958 104.571 91.3938 104.384 89.8573 105.129C89.8108 105.129 89.8108 105.176 89.7642 105.176L89.4383 105.362C87.995 106.293 87.1104 108.156 87.1104 110.809Z" fill="#80C0FF" stroke="#223893" stroke-width="0.86" stroke-miterlimit="10" stroke-linecap="round" stroke-linejoin="round"></path>
  <path d="M96.4052 117.464C96.9494 117.232 97.0641 116.277 96.6613 115.331C96.2585 114.384 95.4908 113.805 94.9466 114.036C94.4024 114.268 94.2877 115.223 94.6905 116.169C95.0933 117.116 95.861 117.695 96.4052 117.464Z" fill="#223893"></path>
  <path d="M303.424 188.563C303.424 189.867 302.772 191.124 301.515 191.869L246.947 223.389C243.409 225.438 239.032 225.438 235.494 223.389L180.927 191.869C179.67 191.124 179.018 189.867 179.018 188.563C179.018 187.259 179.67 186.002 180.927 185.257L235.494 153.737C239.032 151.688 243.409 151.688 246.947 153.737L301.515 185.257C302.818 186.002 303.424 187.259 303.424 188.563Z" fill="#E0E8F7"></path>
  <path d="M303.424 151.269C303.424 152.573 302.772 153.83 301.515 154.575L246.947 186.095C243.409 188.144 239.032 188.144 235.494 186.095L180.927 154.575C179.67 153.83 179.018 152.573 179.018 151.269C179.018 149.966 179.67 148.709 180.927 147.964L235.494 116.443C239.032 114.395 243.409 114.395 246.947 116.443L301.515 147.964C302.818 148.709 303.424 150.012 303.424 151.269Z" fill="white" stroke="#223893" stroke-width="0.86" stroke-miterlimit="10" stroke-linecap="round" stroke-linejoin="round"></path>
  <path d="M105.454 69.9772V105.548C104.151 104.012 102.707 102.755 101.171 101.87C101.171 101.87 101.124 101.87 101.124 101.824C100.333 101.358 99.5878 101.079 98.8428 100.846C98.1444 100.66 97.3529 100.799 96.7011 101.172L96.189 101.451V69.9772H105.454Z" fill="white" stroke="#223893" stroke-width="0.86" stroke-miterlimit="10" stroke-linecap="round" stroke-linejoin="round"></path>
  <path d="M224.878 63.1796C222.131 64.7626 217.708 64.7626 214.961 63.1796L167.564 35.7564C164.817 34.1734 164.817 31.6126 167.564 30.0296C170.311 28.4466 174.734 28.4466 177.481 30.0296L224.878 57.4529C227.625 59.0359 227.625 61.5966 224.878 63.1796Z" fill="white" stroke="#223893" stroke-width="0.86" stroke-miterlimit="10" stroke-linecap="round" stroke-linejoin="round"></path>
  <path d="M303.424 151.269V172.128C303.424 173.385 302.772 174.688 301.515 175.433L246.947 206.954C243.409 209.002 239.032 209.002 235.494 206.954L180.927 175.433C180.275 175.061 179.809 174.549 179.483 173.99C179.157 173.431 179.018 172.78 179.018 172.128V151.269C179.018 152.526 179.67 153.83 180.927 154.575L235.494 186.095C239.032 188.144 243.409 188.144 246.947 186.095L301.515 154.575C302.818 153.83 303.424 152.573 303.424 151.269Z" fill="#E0E8F7" stroke="#223893" stroke-width="0.86" stroke-miterlimit="10" stroke-linecap="round" stroke-linejoin="round"></path>
  <path d="M196.711 151.269C196.711 150.757 196.85 150.245 197.13 149.779L196.711 151.269Z" fill="white" stroke="#223893" stroke-width="0.86" stroke-miterlimit="10" stroke-linecap="round" stroke-linejoin="round"></path>
  <path d="M285.731 151.269L285.312 149.779C285.591 150.245 285.731 150.757 285.731 151.269Z" fill="white" stroke="#223893" stroke-width="0.86" stroke-miterlimit="10" stroke-linecap="round" stroke-linejoin="round"></path>
  <path d="M277.817 124.638C277.817 125.382 277.444 126.127 276.699 126.593L261.195 135.532L244.574 145.124C242.478 146.334 239.918 146.334 237.869 145.124L221.248 135.532L205.743 126.593C204.998 126.174 204.626 125.382 204.626 124.638C204.626 123.893 204.998 123.148 205.743 122.682L237.869 104.152C239.964 102.941 242.525 102.941 244.574 104.152L276.699 122.682C277.444 123.148 277.817 123.893 277.817 124.638Z" fill="white" stroke="#223893" stroke-width="0.86" stroke-miterlimit="10" stroke-linecap="round" stroke-linejoin="round"></path>
  <path d="M198.433 171.569V178.972L190.053 174.13C188.283 173.105 186.84 170.638 186.84 168.589C186.84 167.565 187.213 166.867 187.771 166.494C188.33 166.168 189.168 166.215 190.053 166.727L198.433 171.569Z" fill="#3D93FA" stroke="#223893" stroke-width="0.86" stroke-miterlimit="10" stroke-linecap="round" stroke-linejoin="round"></path>
  <path d="M215.614 185.164C215.614 186.189 215.241 186.887 214.682 187.259C214.124 187.585 213.286 187.539 212.401 187.027L198.433 178.972V171.569L212.401 179.624C214.17 180.648 215.614 183.116 215.614 185.164Z" fill="#4CD9ED" stroke="#223893" stroke-width="0.86" stroke-miterlimit="10" stroke-linecap="round" stroke-linejoin="round"></path>
  <path d="M257.376 188.377L272.415 179.717" stroke="#223893" stroke-width="0.86" stroke-miterlimit="10" stroke-linecap="round" stroke-linejoin="round"></path>
  <path d="M257.376 193.452L265.245 188.935" stroke="#223893" stroke-width="0.86" stroke-miterlimit="10" stroke-linecap="round" stroke-linejoin="round"></path>
  <path d="M296.766 169.931C297.169 168.985 297.054 168.03 296.51 167.798C295.966 167.567 295.198 168.146 294.795 169.093C294.392 170.039 294.507 170.994 295.051 171.226C295.596 171.457 296.363 170.878 296.766 169.931Z" fill="#223893"></path>
  <path d="M291.504 173.019C291.907 172.073 291.792 171.118 291.248 170.886C290.704 170.655 289.936 171.234 289.533 172.181C289.131 173.127 289.245 174.082 289.79 174.314C290.334 174.545 291.102 173.966 291.504 173.019Z" fill="#223893"></path>
  <path d="M285.732 151.269C285.732 152.201 285.266 153.085 284.381 153.644L245.318 176.178C242.804 177.622 239.685 177.622 237.124 176.178L198.061 153.644C197.176 153.132 196.711 152.201 196.711 151.269L197.13 149.779L204.579 124.638C204.579 125.383 204.952 126.127 205.697 126.593L221.201 135.532L237.822 145.124C239.917 146.334 242.478 146.334 244.527 145.124L261.148 135.532L276.653 126.593C277.397 126.174 277.77 125.383 277.77 124.638L285.219 149.779L285.732 151.269Z" fill="#E0E8F7" stroke="#223893" stroke-width="0.86" stroke-miterlimit="10" stroke-linecap="round" stroke-linejoin="round"></path>
  <path d="M256.54 113.603C253.793 114.115 250.301 110.856 248.718 106.293L228.278 47.303C226.695 42.7402 227.627 38.5965 230.374 38.0843C233.121 37.5722 236.613 40.8313 238.196 45.3941L258.635 104.384C260.218 108.947 259.287 113.091 256.54 113.603Z" fill="#E0E8F7" stroke="#223893" stroke-width="0.86" stroke-miterlimit="10" stroke-linecap="round" stroke-linejoin="round"></path>
  <path d="M234.657 50.4225C233.307 50.7018 231.585 49.0723 230.793 46.7909C230.002 44.5095 230.467 42.4609 231.817 42.2281C233.168 41.9487 234.89 43.5783 235.682 45.8597C236.473 48.0945 236.008 50.1431 234.657 50.4225Z" fill="#80C0FF" stroke="#223893" stroke-width="0.86" stroke-miterlimit="10" stroke-linecap="round" stroke-linejoin="round"></path>
  <path d="M255.097 109.413C253.746 109.692 252.024 108.063 251.232 105.781C250.441 103.5 250.906 101.451 252.257 101.218C253.607 100.939 255.329 102.569 256.121 104.85C256.912 107.131 256.447 109.18 255.097 109.413Z" fill="#80C0FF" stroke="#223893" stroke-width="0.86" stroke-miterlimit="10" stroke-linecap="round" stroke-linejoin="round"></path>
  <path d="M249.788 102.848L243.084 98.9836C241.92 98.3317 240.523 98.3317 239.359 98.9836L232.654 102.848H221.061V124.638C221.061 125.057 221.248 125.476 221.667 125.708L239.359 135.905C240.523 136.557 241.92 136.557 243.084 135.905L260.776 125.708C261.195 125.476 261.381 125.057 261.381 124.638V102.848H249.788V102.848Z" fill="#3D93FA" stroke="#223893" stroke-width="0.86" stroke-miterlimit="10" stroke-linecap="round" stroke-linejoin="round"></path>
  <path d="M239.359 114.162L221.667 103.965C220.829 103.5 220.829 102.289 221.667 101.824L239.359 91.6272C240.523 90.9753 241.92 90.9753 243.084 91.6272L260.776 101.824C261.614 102.289 261.614 103.5 260.776 103.965L243.084 114.162C241.92 114.814 240.523 114.814 239.359 114.162Z" fill="#80C0FF" stroke="#223893" stroke-width="0.86" stroke-miterlimit="10" stroke-linecap="round" stroke-linejoin="round"></path>
  <path d="M250.114 102.988L240.988 97.7264" stroke="#223893" stroke-width="0.86" stroke-miterlimit="10" stroke-linecap="round"></path>
  <path d="M236.658 100.241L245.784 105.502" stroke="#223893" stroke-width="0.86" stroke-miterlimit="10" stroke-linecap="round"></path>
  <path d="M241.454 107.969L232.329 102.708" stroke="#223893" stroke-width="0.86" stroke-miterlimit="10" stroke-linecap="round"></path>
  <path d="M227.951 40.8778L221.247 37.0134C220.083 36.3616 218.686 36.3616 217.522 37.0134L210.818 40.8778H199.224V62.6674C199.224 63.0865 199.411 63.5055 199.83 63.7383L217.522 73.9347C218.686 74.5865 220.083 74.5865 221.247 73.9347L238.939 63.7383C239.358 63.5055 239.544 63.0865 239.544 62.6674V40.8778H227.951Z" fill="#E0E8F7" stroke="#223893" stroke-width="0.86" stroke-miterlimit="10" stroke-linecap="round" stroke-linejoin="round"></path>
  <path d="M217.522 52.1917L199.83 41.9952C198.992 41.5296 198.992 40.3191 199.83 39.8535L217.522 29.6571C218.686 29.0053 220.083 29.0053 221.247 29.6571L238.939 39.8535C239.777 40.3191 239.777 41.5296 238.939 41.9952L221.247 52.1917C220.083 52.8435 218.686 52.8435 217.522 52.1917Z" fill="white" stroke="#223893" stroke-width="0.86" stroke-miterlimit="10" stroke-linecap="round" stroke-linejoin="round"></path>
  <path d="M181.067 12.7562L174.362 8.89176C173.198 8.23994 171.801 8.23994 170.637 8.89176L163.933 12.7562H152.34V34.5458C152.34 34.9648 152.526 35.3839 152.945 35.6166L170.637 45.8131C171.801 46.4649 173.198 46.4649 174.362 45.8131L192.054 35.6166C192.473 35.3839 192.66 34.9648 192.66 34.5458V12.7562H181.067Z" fill="#E0E8F7" stroke="#223893" stroke-width="0.86" stroke-miterlimit="10" stroke-linecap="round" stroke-linejoin="round"></path>
  <path d="M170.637 24.0234L152.945 13.827C152.107 13.3614 152.107 12.1509 152.945 11.6853L170.637 1.48887C171.801 0.837043 173.198 0.837043 174.362 1.48887L192.055 11.6853C192.893 12.1509 192.893 13.3614 192.055 13.827L174.362 24.0234C173.198 24.7218 171.801 24.7218 170.637 24.0234Z" fill="white" stroke="#223893" stroke-width="0.86" stroke-miterlimit="10" stroke-linecap="round" stroke-linejoin="round"></path>
  <path d="M232.468 127.524C229.721 128.036 226.229 124.777 224.646 120.214L204.206 61.2241C202.623 56.6613 203.554 52.5176 206.301 52.0054C209.048 51.4933 212.54 54.7524 214.123 59.3152L234.563 118.305C236.192 122.868 235.215 127.012 232.468 127.524Z" fill="#E0E8F7" stroke="#223893" stroke-width="0.86" stroke-miterlimit="10" stroke-linecap="round" stroke-linejoin="round"></path>
  <path d="M210.585 64.3435C209.235 64.6229 207.512 62.9933 206.721 60.7119C205.929 58.4305 206.395 56.3819 207.745 56.1492C209.095 55.8698 210.818 57.4994 211.609 59.7808C212.401 62.0156 211.935 64.0642 210.585 64.3435Z" fill="#80C0FF" stroke="#223893" stroke-width="0.86" stroke-miterlimit="10" stroke-linecap="round" stroke-linejoin="round"></path>
  <path d="M231.024 123.334C229.674 123.613 227.951 121.984 227.16 119.702C226.368 117.421 226.834 115.372 228.184 115.139C229.534 114.86 231.257 116.49 232.049 118.771C232.84 121.052 232.375 123.101 231.024 123.334Z" fill="#80C0FF" stroke="#223893" stroke-width="0.86" stroke-miterlimit="10" stroke-linecap="round" stroke-linejoin="round"></path>
  <path d="M224.878 43.2989C222.131 44.8819 217.708 44.8819 214.961 43.2989L167.564 15.8756C164.817 14.2926 164.817 11.7319 167.564 10.1489C170.311 8.56586 174.734 8.56586 177.481 10.1489L224.878 37.5721C227.625 39.1551 227.625 41.7159 224.878 43.2989Z" fill="white" stroke="#223893" stroke-width="0.86" stroke-miterlimit="10" stroke-linecap="round" stroke-linejoin="round"></path>
  <path d="M174.967 14.4323C173.617 15.2238 171.382 15.2238 169.985 14.4323C168.635 13.6408 168.635 12.3372 169.985 11.5457C171.335 10.7542 173.57 10.7542 174.967 11.5457C176.364 12.3837 176.364 13.6408 174.967 14.4323Z" fill="#80C0FF" stroke="#223893" stroke-width="0.86" stroke-miterlimit="10" stroke-linecap="round" stroke-linejoin="round"></path>
  <path d="M222.41 41.9022C221.06 42.6937 218.825 42.6937 217.429 41.9022C216.078 41.1107 216.078 39.807 217.429 39.0155C218.779 38.224 221.014 38.224 222.41 39.0155C223.761 39.807 223.761 41.1107 222.41 41.9022Z" fill="#80C0FF" stroke="#223893" stroke-width="0.86" stroke-miterlimit="10" stroke-linecap="round" stroke-linejoin="round"></path>
  <path d="M212.029 146.986L207.838 144.565" stroke="#223893" stroke-width="0.86" stroke-miterlimit="10" stroke-linecap="round" stroke-linejoin="round"></path>
  <path d="M260.077 152.945L244.945 161.699C242.617 163.049 239.777 163.049 237.449 161.699L220.269 151.781" stroke="#223893" stroke-width="0.86" stroke-miterlimit="10" stroke-linecap="round" stroke-linejoin="round"></path>
  <path d="M276.326 143.587L266.828 149.034" stroke="#223893" stroke-width="0.86" stroke-miterlimit="10" stroke-linecap="round" stroke-linejoin="round"></path>
  <path d="M165.236 35.151C165.236 35.151 164.817 35.4304 164.724 35.4769L155.505 40.8312C156.017 40.2725 156.25 39.4344 156.25 38.3636C156.25 37.5721 156.11 36.6875 155.784 35.7563C154.9 33.149 152.991 31.2401 151.361 31.2401C151.315 31.2401 151.222 31.2401 151.175 31.2401L160.021 26.1186C160.021 26.1186 160.627 25.8858 160.952 25.8392C162.582 25.5133 164.677 27.4688 165.608 30.1692C166.353 32.2644 166.167 34.2664 165.236 35.151Z" fill="#3D93FA" stroke="#223893" stroke-width="0.86" stroke-miterlimit="10" stroke-linecap="round" stroke-linejoin="round"></path>
  <path d="M156.25 38.3636C156.25 39.4344 155.971 40.2725 155.505 40.8312L154.527 41.3899L103.825 70.629L98.5635 61.55L149.825 31.9384L151.129 31.1935C151.175 31.1935 151.268 31.1935 151.315 31.1935C152.944 31.1935 154.853 33.1024 155.738 35.7097C156.11 36.6874 156.25 37.5721 156.25 38.3636Z" fill="#80C0FF" stroke="#223893" stroke-width="0.86" stroke-miterlimit="10" stroke-linecap="round" stroke-linejoin="round"></path>
  <path d="M93.5356 60.8516C94.6065 60.3394 96.0033 60.4791 97.5397 61.3637C97.5397 61.3637 97.5397 61.3637 97.5863 61.3637C100.892 63.2727 103.592 67.9286 103.592 71.7464V71.793C103.592 73.6088 102.941 74.9124 101.963 75.5642L110.809 70.4428C111.275 70.1634 111.647 69.6978 111.74 69.1857C111.88 68.6735 111.926 68.1614 111.926 67.5561V67.5095C111.926 63.3658 109.04 58.3374 105.455 56.2888C105.455 56.2888 105.455 56.2888 105.408 56.2888C104.849 55.9629 104.337 55.7767 103.825 55.5904C103.313 55.4507 102.801 55.5439 102.335 55.8232L93.5356 60.8516Z" fill="#3D93FA" stroke="#223893" stroke-width="0.86" stroke-miterlimit="10" stroke-linecap="round" stroke-linejoin="round"></path>
  <path d="M91.5801 64.8091C91.5801 68.627 94.2805 73.2829 97.5862 75.1918C99.2158 76.123 100.659 76.2627 101.73 75.6574L101.916 75.5643C102.94 74.9124 103.546 73.6088 103.546 71.793V71.7464C103.546 67.9286 100.892 63.2727 97.5396 61.3638C97.5396 61.3638 97.5396 61.3638 97.4931 61.3638C95.9566 60.4791 94.5133 60.3395 93.489 60.8516C93.4424 60.8516 93.4424 60.8516 93.3959 60.8982L93.1631 61.0379C92.1853 61.6431 91.5801 62.9933 91.5801 64.8091Z" fill="#80C0FF" stroke="#223893" stroke-width="0.86" stroke-miterlimit="10" stroke-linecap="round" stroke-linejoin="round"></path>
  <path d="M100.845 82.7344V93.443" stroke="#223893" stroke-width="0.86" stroke-miterlimit="10" stroke-linecap="round"></path>
  <path d="M330.8 198.783C329.649 198.783 328.529 198.207 327.862 197.147C326.863 195.542 327.347 193.421 328.983 192.422L368.755 167.734C370.361 166.735 372.481 167.219 373.481 168.855C374.48 170.46 373.996 172.581 372.36 173.58L332.588 198.268C332.042 198.631 331.437 198.783 330.8 198.783Z" fill="#F5C5C8"></path>
  <path d="M328.981 192.421L368.753 167.734C370.359 166.734 372.479 167.219 373.479 168.855C374.478 170.46 373.993 172.581 372.358 173.58L338.947 194.3" fill="white"></path>
  <path d="M328.981 192.421L368.753 167.734C370.359 166.734 372.479 167.219 373.479 168.855C374.478 170.46 373.993 172.581 372.358 173.58L338.947 194.3" stroke="#223893" stroke-width="0.86" stroke-miterlimit="10"></path>
  <path d="M330.798 198.784C329.647 198.784 328.527 198.208 327.86 197.148C326.861 195.543 327.345 193.422 328.981 192.423L339.886 185.638C341.491 184.638 345.126 190.484 343.521 191.484L332.616 198.269C332.04 198.632 331.435 198.784 330.798 198.784Z" fill="#4CD9ED"></path>
  <path d="M330.798 198.784C329.647 198.784 328.527 198.208 327.86 197.148C326.861 195.543 327.345 193.422 328.981 192.423L339.886 185.638C341.491 184.638 345.126 190.484 343.521 191.484L332.616 198.269C332.04 198.632 331.435 198.784 330.798 198.784Z" stroke="#223893" stroke-width="0.86" stroke-miterlimit="10"></path>
  <path d="M336.129 319.19C336.796 319.251 337.402 319.554 337.826 320.069V320.099C338.189 320.523 338.371 321.099 338.31 321.644L338.159 323.31C338.007 325.218 336.765 326.884 334.978 327.581C333.494 328.156 331.798 328.005 330.465 327.157L317.197 318.191C315.804 317.252 315.259 315.464 315.925 313.889C317.016 311.314 319.59 308.437 325.497 311.466L331.374 314.768L336.129 319.19Z" fill="#223893"></path>
  <path d="M336.28 317.645C336.947 317.705 337.553 318.008 337.977 318.523V318.553C338.34 318.977 338.522 319.553 338.461 320.098L338.31 321.764C338.158 323.673 336.917 325.339 335.129 326.035C333.645 326.611 331.949 326.459 330.616 325.611L317.348 316.645C315.955 315.706 315.41 313.919 316.076 312.344C317.167 309.769 319.741 306.891 325.648 309.92L331.525 313.222L336.28 317.645Z" fill="#EFF4FE"></path>
  <path d="M338.461 319.947C338.461 319.432 338.704 318.311 338.583 317.736L337.492 315.797C337.068 315.313 336.917 317.736 336.25 317.675L331.494 313.192L325.618 309.89C319.711 306.861 317.136 309.739 316.046 312.314C316.046 312.344 316.016 312.374 316.016 312.405C316.197 313.283 316.712 314.101 317.5 314.616L330.767 323.582C332.131 324.43 333.797 324.612 335.281 324.006C337.038 323.37 338.249 321.795 338.461 319.947Z" fill="#E0E8F7"></path>
  <path d="M331.525 313.192L325.649 309.89C319.742 306.861 317.167 309.739 316.077 312.314C316.077 312.344 316.046 312.374 316.046 312.405C316.228 313.283 316.743 314.101 317.531 314.616L330.798 323.582C332.161 324.43 333.827 324.612 335.312 324.006C337.038 323.34 338.25 321.765 338.492 319.917" stroke="#223893" stroke-width="0.86" stroke-miterlimit="10"></path>
  <path d="M336.28 317.645C336.947 317.706 337.25 316.282 337.522 315.767L338.522 317.584C338.885 318.008 338.522 319.493 338.461 320.068L338.31 321.734C338.158 323.643 336.917 325.309 335.129 326.005C333.645 326.581 331.949 326.429 330.616 325.581L317.348 316.615C315.955 315.676 315.41 313.889 316.076 312.314C317.167 309.739 319.741 306.861 325.648 309.89L331.525 313.192L336.28 317.645Z" stroke="#223893" stroke-width="0.86" stroke-miterlimit="10"></path>
  <path d="M333.828 319.283C331.829 319.374 330.102 317.829 330.011 315.799L325.589 219.625C325.498 217.625 327.043 215.899 329.072 215.808C331.071 215.717 332.798 217.262 332.889 219.291L337.311 315.466C337.402 317.496 335.827 319.192 333.828 319.283Z" fill="white"></path>
  <path d="M333.828 319.283C331.829 319.374 330.102 317.829 330.011 315.799L325.589 219.625C325.498 217.625 327.043 215.899 329.072 215.808C331.071 215.717 332.798 217.262 332.889 219.291L337.311 315.466C337.402 317.496 335.827 319.192 333.828 319.283Z" stroke="#223893" stroke-width="0.86" stroke-miterlimit="10"></path>
  <path d="M339.281 299.593C339.281 299.532 339.281 299.441 339.281 299.381L336.525 219.139C336.343 215.111 332.92 212.021 328.922 212.203C324.923 212.384 321.803 215.807 321.985 219.806L326.347 299.896C326.347 300.047 326.377 300.168 326.407 300.32C326.498 301.895 329.103 302.834 333.102 302.652C337.1 302.471 339.402 301.35 339.311 299.775C339.311 299.714 339.281 299.653 339.281 299.593Z" fill="#E0E8F7"></path>
  <path d="M339.281 299.593C339.281 299.532 339.281 299.441 339.281 299.381L336.525 219.139C336.343 215.111 332.92 212.021 328.922 212.203C324.923 212.384 321.803 215.807 321.985 219.806L326.347 299.896C326.347 300.047 326.377 300.168 326.407 300.32C326.498 301.895 329.103 302.834 333.102 302.652C337.1 302.471 339.402 301.35 339.311 299.775C339.311 299.714 339.281 299.653 339.281 299.593Z" stroke="#223893" stroke-width="0.86" stroke-miterlimit="10"></path>
  <path d="M333.404 309.861C331.404 309.952 329.738 309.588 329.708 309.043L330.011 315.798C330.102 317.797 331.798 319.372 333.828 319.281C335.827 319.19 337.402 317.494 337.311 315.465L337.008 308.71C337.008 309.255 335.403 309.77 333.404 309.861Z" fill="white"></path>
  <path d="M333.465 311.527C331.466 311.618 329.8 311.255 329.769 310.709L329.86 312.406C329.89 312.951 331.526 313.314 333.556 313.224C335.555 313.133 337.16 312.618 337.16 312.073L337.069 310.376C337.1 310.952 335.464 311.436 333.465 311.527Z" fill="#4CD9ED"></path>
  <path d="M333.404 309.861C331.404 309.952 329.738 309.588 329.708 309.043L330.011 315.798C330.102 317.797 331.798 319.372 333.828 319.281C335.827 319.19 337.402 317.494 337.311 315.465L337.008 308.71C337.008 309.255 335.403 309.77 333.404 309.861Z" stroke="#223893" stroke-width="0.86" stroke-miterlimit="10"></path>
  <path d="M315.864 329.55C313.865 329.489 312.259 327.823 312.32 325.794L315.228 229.559C315.288 227.559 316.954 225.954 318.984 226.015C320.983 226.075 322.589 227.741 322.528 229.771L319.62 326.006C319.529 328.035 317.863 329.611 315.864 329.55Z" fill="white"></path>
  <path d="M315.864 329.55C313.865 329.489 312.259 327.823 312.32 325.794L315.228 229.559C315.288 227.559 316.954 225.954 318.984 226.015C320.983 226.075 322.589 227.741 322.528 229.771L319.62 326.006C319.529 328.035 317.863 329.611 315.864 329.55Z" stroke="#223893" stroke-width="0.86" stroke-miterlimit="10"></path>
  <path d="M323.709 310.104C323.709 310.043 323.709 309.952 323.74 309.892L328.768 232.195C328.889 228.166 323.104 222.532 319.075 222.41C315.046 222.289 311.684 225.44 311.563 229.468L310.381 309.71C310.381 309.861 310.381 310.013 310.412 310.134C310.381 311.709 312.35 312.8 316.349 312.921C320.347 313.042 323.649 311.861 323.709 310.285C323.74 310.225 323.74 310.164 323.709 310.104Z" fill="#E0E8F7"></path>
  <path d="M311.563 229.469L310.381 309.71C310.381 309.862 310.381 310.013 310.412 310.135C310.381 311.71 312.35 312.8 316.349 312.921C320.347 313.043 323.649 311.861 323.709 310.286C323.709 310.225 323.709 310.165 323.709 310.104C323.709 310.044 323.709 309.953 323.74 309.892L328.768 246.311" stroke="#223893" stroke-width="0.86" stroke-miterlimit="10"></path>
  <path d="M318.712 328.883C319.348 328.792 320.015 328.974 320.53 329.368H320.56C321.014 329.701 321.317 330.216 321.378 330.761L321.59 332.397C321.832 334.305 320.984 336.183 319.409 337.243C318.076 338.122 316.41 338.334 314.896 337.789L299.992 331.912C298.417 331.306 297.508 329.64 297.811 328.005C298.326 325.278 300.204 321.886 306.656 323.582L313.108 325.551L318.712 328.883Z" fill="#223893"></path>
  <path d="M318.5 327.338C319.136 327.247 319.803 327.429 320.318 327.822H320.348C320.802 328.155 321.105 328.67 321.166 329.216L321.378 330.851C321.62 332.76 320.772 334.638 319.197 335.698C317.864 336.576 316.198 336.788 314.683 336.243L299.78 330.336C298.205 329.731 297.296 328.065 297.599 326.429C298.114 323.703 299.992 320.31 306.444 322.006L312.896 323.975L318.5 327.338Z" fill="#EFF4FE"></path>
  <path d="M321.166 329.126C321.075 328.611 321.045 327.46 320.803 326.945L319.318 325.279C318.803 324.886 319.167 327.279 318.531 327.369L312.927 324.037L306.475 322.068C300.053 320.372 298.175 323.765 297.63 326.491C297.63 326.521 297.63 326.552 297.6 326.612C297.963 327.43 298.66 328.127 299.538 328.46L314.442 334.367C315.956 334.912 317.622 334.7 318.955 333.821C320.5 332.761 321.318 330.944 321.166 329.126Z" fill="#E0E8F7"></path>
  <path d="M312.896 324.007L306.444 322.038C300.022 320.342 298.144 323.735 297.599 326.461C297.599 326.491 297.599 326.521 297.569 326.582C297.932 327.4 298.629 328.097 299.507 328.43L314.411 334.337C315.925 334.882 317.591 334.67 318.924 333.791C320.469 332.761 321.317 330.974 321.135 329.126" stroke="#223893" stroke-width="0.86" stroke-miterlimit="10"></path>
  <path d="M318.501 327.338C319.137 327.247 319.137 325.793 319.288 325.248L320.651 326.792C321.106 327.126 321.075 328.67 321.136 329.216L321.348 330.851C321.59 332.76 320.742 334.638 319.167 335.698C317.834 336.576 316.168 336.788 314.654 336.243L299.75 330.336C298.175 329.731 297.266 328.065 297.569 326.429C298.084 323.703 299.962 320.31 306.414 322.006L312.866 323.975L318.501 327.338Z" stroke="#223893" stroke-width="0.86" stroke-miterlimit="10"></path>
  <path d="M316.138 320.129C314.139 320.068 312.504 319.584 312.534 319.038L312.322 325.793C312.261 327.793 313.836 329.489 315.866 329.549C317.865 329.61 319.561 328.035 319.622 326.005L319.834 319.25C319.804 319.796 318.138 320.189 316.138 320.129Z" fill="white"></path>
  <path d="M316.078 321.825C314.078 321.765 312.443 321.28 312.473 320.735L312.412 322.431C312.382 322.976 314.018 323.461 316.017 323.522C318.016 323.582 319.682 323.188 319.682 322.643L319.743 320.947C319.743 321.492 318.107 321.886 316.078 321.825Z" fill="#4CD9ED"></path>
  <path d="M316.138 320.129C314.139 320.068 312.504 319.584 312.534 319.038L312.322 325.793C312.261 327.793 313.836 329.489 315.866 329.549C317.865 329.61 319.561 328.035 319.622 326.005L319.834 319.25C319.804 319.796 318.138 320.189 316.138 320.129Z" stroke="#223893" stroke-width="0.86" stroke-miterlimit="10"></path>
  <path d="M311.534 229.8V205.87C311.534 203.871 312.594 202.054 314.29 201.024L328.77 192.451C332.253 190.391 336.676 192.906 336.676 196.965V225.59C333.101 233.284 323.802 236.374 316.32 232.375L311.534 229.8Z" fill="#4CD9ED"></path>
  <path d="M328.77 192.452L314.29 201.025C312.594 202.024 311.534 203.872 311.534 205.871V229.801L316.32 232.376C323.802 236.375 333.101 233.285 336.676 225.591V196.966V193.361" stroke="#223893" stroke-width="0.86" stroke-miterlimit="10"></path>
  <path d="M319.535 183.525C320.029 182.67 320.029 181.747 319.537 181.462C319.044 181.178 318.245 181.64 317.751 182.495C317.258 183.35 317.257 184.273 317.75 184.558C318.242 184.842 319.042 184.38 319.535 183.525Z" stroke="#223893" stroke-width="0.86" stroke-miterlimit="10"></path>
  <path d="M323.257 203.387C320.985 203.387 319.167 201.539 319.167 199.298V178.366C319.167 176.094 321.015 174.277 323.257 174.277C325.498 174.277 327.346 176.125 327.346 178.366V199.298C327.376 201.569 325.528 203.387 323.257 203.387Z" fill="white"></path>
  <path d="M323.257 203.387C320.985 203.387 319.167 201.539 319.167 199.298V178.366C319.167 176.094 321.015 174.277 323.257 174.277C325.498 174.277 327.346 176.125 327.346 178.366V199.298C327.376 201.569 325.528 203.387 323.257 203.387Z" stroke="#223893" stroke-width="0.86" stroke-miterlimit="10"></path>
  <path d="M323.166 174.277C320.955 174.247 319.168 176.094 319.168 178.336V180.123L322.227 182.001C322.258 182.001 322.318 182.122 322.379 182.365C323.288 184.758 323.257 187.423 322.318 189.786L320.289 194.966C320.289 194.966 320.531 195.087 320.925 195.269C323.863 196.632 327.286 196.48 330.103 194.845L331.224 194.178L327.347 178.699C327.104 177.276 326.983 174.307 323.166 174.277Z" fill="#223893"></path>
  <path d="M317.926 182.245L323.469 184.971" stroke="#223893" stroke-width="0.86" stroke-miterlimit="10"></path>
  <path d="M328.133 180.154C329.756 180.154 331.071 178.839 331.071 177.216C331.071 175.593 329.756 174.278 328.133 174.278C326.51 174.278 325.195 175.593 325.195 177.216C325.195 178.839 326.51 180.154 328.133 180.154Z" fill="#223893"></path>
  <path d="M311.139 248.187C311.109 248.187 311.109 248.187 311.079 248.187C309.171 248.157 307.656 246.582 307.686 244.704L307.747 239.554L301.84 232.194C296.509 225.56 297.296 215.897 303.658 210.202L313.29 201.599C314.714 200.327 316.895 200.448 318.137 201.872C319.409 203.296 319.288 205.477 317.864 206.719L308.231 215.321C304.597 218.563 304.142 224.076 307.202 227.862L314.653 237.161L314.532 244.795C314.532 246.703 313.018 248.187 311.139 248.187Z" fill="white"></path>
  <path d="M313.502 210.657L308.261 215.322C304.626 218.563 304.172 224.076 307.231 227.862L314.683 237.162L314.562 244.795C314.532 246.673 312.987 248.188 311.109 248.188C311.078 248.188 311.078 248.188 311.048 248.188C309.14 248.157 307.625 246.582 307.655 244.704L307.716 239.555L301.809 232.194C296.478 225.56 297.266 215.897 303.627 210.202L308.625 205.719" stroke="#223893" stroke-width="0.86" stroke-miterlimit="10"></path>
  <path d="M303.688 210.201L313.321 201.598C314.744 200.326 317.198 199.842 318.47 201.235C319.742 202.659 319.894 205.143 318.47 206.415L308.262 215.32C307.535 216.078 302.264 211.473 303.688 210.201Z" fill="#4CD9ED"></path>
  <path d="M314.563 209.717L308.262 215.351C307.535 216.078 302.264 211.474 303.688 210.232L312.17 202.659C312.927 201.962 313.775 201.356 314.654 200.841L316.774 199.599" stroke="#223893" stroke-width="0.86" stroke-miterlimit="10"></path>
</svg>
